<svg width="225" height="21" viewBox="0 0 225 21" fill="none" xmlns="http://www.w3.org/2000/svg">
<path d="M20.748 0.0079987L20.972 1.884L13.944 17.536C13.944 17.536 13.8693 17.6947 13.72 18.012C13.5893 18.3293 13.4493 18.712 13.3 19.16C13.1507 19.5893 13.048 20 12.992 20.392H12.712L12.32 18.628L20.748 0.0079987ZM3.528 17.956V20H0.42V19.72C0.438667 19.72 0.513333 19.72 0.644 19.72C0.793333 19.72 0.868 19.72 0.868 19.72C1.372 19.72 1.82 19.5707 2.212 19.272C2.604 18.9547 2.83733 18.516 2.912 17.956H3.528ZM4.34 18.404C4.34 18.4227 4.34 18.4413 4.34 18.46C4.34 18.4787 4.34 18.5067 4.34 18.544C4.34 18.8427 4.44267 19.1227 4.648 19.384C4.872 19.6267 5.13333 19.748 5.432 19.748H5.852V20H4.144V18.404H4.34ZM5.012 0.0079987H5.292L5.852 1.66L4.2 20H2.688L5.012 0.0079987ZM5.292 0.0079987L13.356 17.452L12.712 20.392L4.76 3.144L5.292 0.0079987ZM21 0.0079987L23.408 20H21.224L19.684 3.032L20.748 0.0079987H21ZM22.568 17.956H23.156C23.2493 18.516 23.492 18.9547 23.884 19.272C24.276 19.5707 24.7147 19.72 25.2 19.72C25.2 19.72 25.2747 19.72 25.424 19.72C25.5733 19.72 25.648 19.72 25.648 19.72V20H22.568V17.956ZM21.084 18.404H21.28V20H19.572V19.748H19.992C20.3093 19.748 20.5707 19.6267 20.776 19.384C20.9813 19.1227 21.084 18.8427 21.084 18.544C21.084 18.5067 21.084 18.4787 21.084 18.46C21.084 18.4413 21.084 18.4227 21.084 18.404ZM35.4666 2.808L43.1666 19.832H40.9546L34.9906 5.3L35.4666 2.808ZM30.0626 17.956C29.8573 18.516 29.8853 18.9547 30.1466 19.272C30.4079 19.5707 30.7066 19.72 31.0426 19.72H31.2666V20H25.9186V19.72C25.9186 19.72 25.9559 19.72 26.0306 19.72C26.1053 19.72 26.1426 19.72 26.1426 19.72C26.5346 19.72 26.9359 19.5893 27.3466 19.328C27.7573 19.048 28.1119 18.5907 28.4106 17.956H30.0626ZM35.4666 2.808L35.6626 4.74L29.2506 19.916H27.4866L34.1226 5.692C34.1226 5.692 34.1693 5.58 34.2626 5.356C34.3746 5.132 34.4959 4.86133 34.6266 4.544C34.7759 4.208 34.9066 3.88133 35.0186 3.564C35.1306 3.24667 35.1959 2.99467 35.2146 2.808H35.4666ZM38.7706 13.476V14.316H31.3506V13.476H38.7706ZM40.1986 17.956H42.3266C42.6066 18.5907 42.9519 19.048 43.3626 19.328C43.7733 19.5893 44.1653 19.72 44.5386 19.72C44.5386 19.72 44.5759 19.72 44.6506 19.72C44.7253 19.72 44.7626 19.72 44.7626 19.72V20H39.0226V19.72H39.2466C39.5639 19.72 39.8533 19.5707 40.1146 19.272C40.3759 18.9547 40.4039 18.516 40.1986 17.956ZM49.973 3.2V20H48.181V3.2H49.973ZM57.505 19.132L57.449 20H49.917V19.132H57.505ZM56.189 11.18V12.02H49.917V11.18H56.189ZM57.477 3.2V4.068H49.917V3.2H57.477ZM59.073 15.996L57.533 20H53.277L54.229 19.132C55.1623 19.132 55.909 19.0013 56.469 18.74C57.0477 18.46 57.5143 18.0867 57.869 17.62C58.2237 17.1347 58.5317 16.5933 58.793 15.996H59.073ZM56.189 11.964V13.56H55.881V13.196C55.881 12.8787 55.7877 12.608 55.601 12.384C55.4143 12.1413 55.125 12.02 54.733 12.02V11.964H56.189ZM56.189 9.64V11.236H54.733V11.18C55.125 11.18 55.4143 11.068 55.601 10.844C55.7877 10.6013 55.881 10.3213 55.881 10.004V9.64H56.189ZM57.477 3.984V5.916H57.169V5.496C57.169 5.104 57.0383 4.768 56.777 4.488C56.5343 4.208 56.1983 4.068 55.769 4.068V3.984H57.477ZM57.477 2.752V3.48L54.285 3.2C54.8637 3.2 55.4797 3.15333 56.133 3.06C56.7863 2.948 57.2343 2.84533 57.477 2.752ZM48.237 18.208L48.601 20H46.165V19.72C46.165 19.72 46.2303 19.72 46.361 19.72C46.4917 19.72 46.557 19.72 46.557 19.72C47.0237 19.72 47.4063 19.5707 47.705 19.272C48.0037 18.9733 48.1623 18.6187 48.181 18.208H48.237ZM48.237 4.964H48.181C48.1623 4.53467 48.0037 4.18 47.705 3.9C47.4063 3.62 47.0237 3.48 46.557 3.48C46.557 3.48 46.4917 3.48 46.361 3.48C46.2303 3.48 46.165 3.48 46.165 3.48V3.2H48.601L48.237 4.964ZM64.9847 3.2V20H63.1927V3.2H64.9847ZM72.5167 19.132L72.4607 20H64.9287V19.132H72.5167ZM74.0847 15.996L72.5447 20H68.2887L69.2407 19.132C70.1741 19.132 70.9207 19.0013 71.4807 18.74C72.0594 18.46 72.5261 18.0867 72.8807 17.62C73.2354 17.1347 73.5434 16.5933 73.8047 15.996H74.0847ZM63.2487 18.208L63.6127 20H61.1767V19.72C61.1767 19.72 61.2421 19.72 61.3727 19.72C61.5034 19.72 61.5687 19.72 61.5687 19.72C62.0354 19.72 62.4181 19.5707 62.7167 19.272C63.0154 18.9733 63.1741 18.6187 63.1927 18.208H63.2487ZM64.9007 4.992V3.2H66.9727V3.48C66.9727 3.48 66.9167 3.48 66.8047 3.48C66.6927 3.48 66.6367 3.48 66.6367 3.48C66.1887 3.48 65.7967 3.62933 65.4607 3.928C65.1434 4.208 64.9847 4.56267 64.9847 4.992H64.9007ZM63.2487 4.992H63.1927C63.1741 4.56267 63.0061 4.208 62.6887 3.928C62.3714 3.62933 61.9794 3.48 61.5127 3.48C61.5127 3.48 61.4567 3.48 61.3447 3.48C61.2327 3.48 61.1767 3.48 61.1767 3.48V3.2H63.2487V4.992ZM102.396 0.0079987L102.62 1.884L95.5924 17.536C95.5924 17.536 95.5178 17.6947 95.3684 18.012C95.2378 18.3293 95.0978 18.712 94.9484 19.16C94.7991 19.5893 94.6964 20 94.6404 20.392H94.3604L93.9684 18.628L102.396 0.0079987ZM85.1764 17.956V20H82.0684V19.72C82.0871 19.72 82.1618 19.72 82.2924 19.72C82.4418 19.72 82.5164 19.72 82.5164 19.72C83.0204 19.72 83.4684 19.5707 83.8604 19.272C84.2524 18.9547 84.4858 18.516 84.5604 17.956H85.1764ZM85.9884 18.404C85.9884 18.4227 85.9884 18.4413 85.9884 18.46C85.9884 18.4787 85.9884 18.5067 85.9884 18.544C85.9884 18.8427 86.0911 19.1227 86.2964 19.384C86.5204 19.6267 86.7818 19.748 87.0804 19.748H87.5004V20H85.7924V18.404H85.9884ZM86.6604 0.0079987H86.9404L87.5004 1.66L85.8484 20H84.3364L86.6604 0.0079987ZM86.9404 0.0079987L95.0044 17.452L94.3604 20.392L86.4084 3.144L86.9404 0.0079987ZM102.648 0.0079987L105.056 20H102.872L101.332 3.032L102.396 0.0079987H102.648ZM104.216 17.956H104.804C104.898 18.516 105.14 18.9547 105.532 19.272C105.924 19.5707 106.363 19.72 106.848 19.72C106.848 19.72 106.923 19.72 107.072 19.72C107.222 19.72 107.296 19.72 107.296 19.72V20H104.216V17.956ZM102.732 18.404H102.928V20H101.22V19.748H101.64C101.958 19.748 102.219 19.6267 102.424 19.384C102.63 19.1227 102.732 18.8427 102.732 18.544C102.732 18.5067 102.732 18.4787 102.732 18.46C102.732 18.4413 102.732 18.4227 102.732 18.404ZM118.27 2.808C119.576 2.808 120.799 3.02267 121.938 3.452C123.095 3.86267 124.103 4.46 124.962 5.244C125.839 6.028 126.52 6.96133 127.006 8.044C127.491 9.108 127.734 10.2933 127.734 11.6C127.734 12.9067 127.491 14.1013 127.006 15.184C126.52 16.248 125.839 17.172 124.962 17.956C124.103 18.74 123.095 19.3467 121.938 19.776C120.799 20.1867 119.576 20.392 118.27 20.392C116.963 20.392 115.74 20.1867 114.602 19.776C113.463 19.3467 112.455 18.74 111.578 17.956C110.719 17.172 110.047 16.248 109.562 15.184C109.076 14.1013 108.834 12.9067 108.834 11.6C108.834 10.2933 109.076 9.108 109.562 8.044C110.047 6.96133 110.719 6.028 111.578 5.244C112.455 4.46 113.463 3.86267 114.602 3.452C115.74 3.02267 116.963 2.808 118.27 2.808ZM118.27 19.552C119.651 19.552 120.902 19.216 122.022 18.544C123.142 17.872 124.028 16.9387 124.682 15.744C125.335 14.5493 125.662 13.168 125.662 11.6C125.662 10.0133 125.335 8.632 124.682 7.456C124.028 6.26133 123.142 5.328 122.022 4.656C120.902 3.984 119.651 3.648 118.27 3.648C116.907 3.648 115.666 3.984 114.546 4.656C113.426 5.328 112.539 6.26133 111.886 7.456C111.232 8.632 110.906 10.0133 110.906 11.6C110.906 13.168 111.232 14.5493 111.886 15.744C112.539 16.9387 113.426 17.872 114.546 18.544C115.666 19.216 116.907 19.552 118.27 19.552ZM133.663 3.2H137.275C138.152 3.2 138.936 3.30267 139.627 3.508C140.336 3.71333 140.934 4.012 141.419 4.404C141.923 4.796 142.306 5.272 142.567 5.832C142.828 6.392 142.959 7.02667 142.959 7.736C142.959 8.52 142.772 9.248 142.399 9.92C142.026 10.592 141.503 11.1427 140.831 11.572C140.178 12.0013 139.431 12.2627 138.591 12.356C138.908 12.4867 139.272 12.776 139.683 13.224C140.112 13.672 140.476 14.1107 140.775 14.54C140.775 14.54 140.896 14.708 141.139 15.044C141.382 15.3613 141.69 15.7627 142.063 16.248C142.455 16.7147 142.838 17.1627 143.211 17.592C143.603 18.0213 143.958 18.3947 144.275 18.712C144.611 19.0293 144.966 19.2813 145.339 19.468C145.731 19.636 146.179 19.72 146.683 19.72V20H145.815C144.788 20 143.939 19.8693 143.267 19.608C142.614 19.3467 142.082 19.0293 141.671 18.656C141.26 18.264 140.906 17.8907 140.607 17.536C140.532 17.4427 140.355 17.2093 140.075 16.836C139.814 16.444 139.524 16.024 139.207 15.576C138.89 15.128 138.6 14.7267 138.339 14.372C138.078 13.9987 137.919 13.7747 137.863 13.7C137.49 13.2147 137.06 12.7853 136.575 12.412C136.09 12.02 135.576 11.824 135.035 11.824V11.544C135.035 11.544 135.184 11.5533 135.483 11.572C135.782 11.572 136.164 11.5627 136.631 11.544C137.154 11.5253 137.676 11.488 138.199 11.432C138.722 11.3573 139.207 11.152 139.655 10.816C140.122 10.48 140.486 9.92 140.747 9.136C140.822 8.93067 140.878 8.688 140.915 8.408C140.952 8.128 140.962 7.83867 140.943 7.54C140.924 7.01733 140.822 6.55067 140.635 6.14C140.467 5.72933 140.215 5.37467 139.879 5.076C139.562 4.77733 139.179 4.544 138.731 4.376C138.283 4.208 137.779 4.11467 137.219 4.096C136.342 4.05867 135.576 4.04933 134.923 4.068C134.27 4.08667 133.943 4.08667 133.943 4.068C133.943 4.04933 133.915 3.97467 133.859 3.844C133.822 3.69467 133.775 3.55467 133.719 3.424C133.682 3.27467 133.663 3.2 133.663 3.2ZM133.999 3.2V20H132.207V3.2H133.999ZM132.291 18.208L132.627 20H130.247V19.72C130.247 19.72 130.312 19.72 130.443 19.72C130.574 19.72 130.639 19.72 130.639 19.72C131.087 19.72 131.46 19.5707 131.759 19.272C132.058 18.9733 132.216 18.6187 132.235 18.208H132.291ZM132.291 4.964H132.235C132.216 4.53467 132.058 4.18 131.759 3.9C131.46 3.62 131.087 3.48 130.639 3.48C130.639 3.48 130.574 3.48 130.443 3.48C130.312 3.48 130.247 3.48 130.247 3.48V3.2H132.627L132.291 4.964ZM133.915 18.208H133.999C134.018 18.6187 134.176 18.9733 134.475 19.272C134.774 19.5707 135.147 19.72 135.595 19.72C135.595 19.72 135.651 19.72 135.763 19.72C135.894 19.72 135.959 19.72 135.959 19.72L135.987 20H133.579L133.915 18.208ZM151.61 3.2V20H149.818V3.2H151.61ZM159.142 19.132L159.086 20H151.554V19.132H159.142ZM160.71 15.996L159.17 20H154.914L155.866 19.132C156.799 19.132 157.546 19.0013 158.106 18.74C158.684 18.46 159.151 18.0867 159.506 17.62C159.86 17.1347 160.168 16.5933 160.43 15.996H160.71ZM149.874 18.208L150.238 20H147.802V19.72C147.802 19.72 147.867 19.72 147.998 19.72C148.128 19.72 148.194 19.72 148.194 19.72C148.66 19.72 149.043 19.5707 149.342 19.272C149.64 18.9733 149.799 18.6187 149.818 18.208H149.874ZM151.526 4.992V3.2H153.598V3.48C153.598 3.48 153.542 3.48 153.43 3.48C153.318 3.48 153.262 3.48 153.262 3.48C152.814 3.48 152.422 3.62933 152.086 3.928C151.768 4.208 151.61 4.56267 151.61 4.992H151.526ZM149.874 4.992H149.818C149.799 4.56267 149.631 4.208 149.314 3.928C148.996 3.62933 148.604 3.48 148.138 3.48C148.138 3.48 148.082 3.48 147.97 3.48C147.858 3.48 147.802 3.48 147.802 3.48V3.2H149.874V4.992ZM165.938 3.2V20H164.146V3.2H165.938ZM173.47 19.132L173.414 20H165.882V19.132H173.47ZM172.154 11.18V12.02H165.882V11.18H172.154ZM173.442 3.2V4.068H165.882V3.2H173.442ZM175.038 15.996L173.498 20H169.242L170.194 19.132C171.127 19.132 171.874 19.0013 172.434 18.74C173.013 18.46 173.479 18.0867 173.834 17.62C174.189 17.1347 174.497 16.5933 174.758 15.996H175.038ZM172.154 11.964V13.56H171.846V13.196C171.846 12.8787 171.753 12.608 171.566 12.384C171.379 12.1413 171.09 12.02 170.698 12.02V11.964H172.154ZM172.154 9.64V11.236H170.698V11.18C171.09 11.18 171.379 11.068 171.566 10.844C171.753 10.6013 171.846 10.3213 171.846 10.004V9.64H172.154ZM173.442 3.984V5.916H173.134V5.496C173.134 5.104 173.003 4.768 172.742 4.488C172.499 4.208 172.163 4.068 171.734 4.068V3.984H173.442ZM173.442 2.752V3.48L170.25 3.2C170.829 3.2 171.445 3.15333 172.098 3.06C172.751 2.948 173.199 2.84533 173.442 2.752ZM164.202 18.208L164.566 20H162.13V19.72C162.13 19.72 162.195 19.72 162.326 19.72C162.457 19.72 162.522 19.72 162.522 19.72C162.989 19.72 163.371 19.5707 163.67 19.272C163.969 18.9733 164.127 18.6187 164.146 18.208H164.202ZM164.202 4.964H164.146C164.127 4.53467 163.969 4.18 163.67 3.9C163.371 3.62 162.989 3.48 162.522 3.48C162.522 3.48 162.457 3.48 162.326 3.48C162.195 3.48 162.13 3.48 162.13 3.48V3.2H164.566L164.202 4.964ZM185.031 20.392L177.331 3.368H179.543L185.507 17.9L185.031 20.392ZM185.031 20.392L184.835 18.46L191.247 3.284H193.011L186.375 17.508C186.375 17.508 186.319 17.62 186.207 17.844C186.114 18.068 185.992 18.348 185.843 18.684C185.712 19.0013 185.591 19.3187 185.479 19.636C185.367 19.9533 185.302 20.2053 185.283 20.392H185.031ZM190.435 5.244C190.64 4.684 190.612 4.25467 190.351 3.956C190.09 3.63867 189.791 3.48 189.455 3.48H189.259V3.2H194.579V3.48C194.579 3.48 194.542 3.48 194.467 3.48C194.392 3.48 194.355 3.48 194.355 3.48C193.963 3.48 193.562 3.62 193.151 3.9C192.74 4.16133 192.386 4.60933 192.087 5.244H190.435ZM180.299 5.244H178.171C177.891 4.60933 177.546 4.16133 177.135 3.9C176.724 3.62 176.332 3.48 175.959 3.48C175.959 3.48 175.922 3.48 175.847 3.48C175.772 3.48 175.735 3.48 175.735 3.48V3.2H181.475V3.48H181.251C180.934 3.48 180.644 3.63867 180.383 3.956C180.14 4.25467 180.112 4.684 180.299 5.244ZM201.471 2.808L209.171 19.832H206.959L200.995 5.3L201.471 2.808ZM196.067 17.956C195.861 18.516 195.889 18.9547 196.151 19.272C196.412 19.5707 196.711 19.72 197.047 19.72H197.271V20H191.922V19.72C191.922 19.72 191.96 19.72 192.034 19.72C192.109 19.72 192.147 19.72 192.147 19.72C192.539 19.72 192.94 19.5893 193.351 19.328C193.761 19.048 194.116 18.5907 194.415 17.956H196.067ZM201.471 2.808L201.667 4.74L195.255 19.916H193.491L200.127 5.692C200.127 5.692 200.173 5.58 200.267 5.356C200.379 5.132 200.5 4.86133 200.631 4.544C200.78 4.208 200.911 3.88133 201.023 3.564C201.135 3.24667 201.2 2.99467 201.219 2.808H201.471ZM204.775 13.476V14.316H197.355V13.476H204.775ZM206.202 17.956H208.331C208.611 18.5907 208.956 19.048 209.367 19.328C209.777 19.5893 210.169 19.72 210.543 19.72C210.543 19.72 210.58 19.72 210.655 19.72C210.729 19.72 210.767 19.72 210.767 19.72V20H205.027V19.72H205.251C205.568 19.72 205.857 19.5707 206.119 19.272C206.38 18.9547 206.408 18.516 206.202 17.956ZM217.676 3.284V20H215.856V3.284H217.676ZM224.452 3.172V4.012H209.08V3.172H224.452ZM224.452 3.956V5.888H224.144V5.44C224.144 5.048 224.013 4.72133 223.752 4.46C223.509 4.18 223.173 4.03067 222.744 4.012V3.956H224.452ZM224.452 2.724V3.452L221.316 3.172C221.689 3.172 222.081 3.15333 222.492 3.116C222.921 3.06 223.313 2.99467 223.668 2.92C224.023 2.84533 224.284 2.78 224.452 2.724ZM215.912 18.208V20H213.868V19.72C213.887 19.72 213.943 19.72 214.036 19.72C214.148 19.72 214.204 19.72 214.204 19.72C214.652 19.72 215.035 19.5707 215.352 19.272C215.669 18.9733 215.837 18.6187 215.856 18.208H215.912ZM217.592 18.208H217.676C217.695 18.6187 217.863 18.9733 218.18 19.272C218.497 19.5707 218.88 19.72 219.328 19.72C219.328 19.72 219.375 19.72 219.468 19.72C219.58 19.72 219.636 19.72 219.636 19.72V20H217.592V18.208ZM210.788 3.956V4.012C210.359 4.03067 210.013 4.18 209.752 4.46C209.509 4.72133 209.388 5.048 209.388 5.44V5.888H209.08V3.956H210.788ZM209.08 2.724C209.248 2.78 209.5 2.84533 209.836 2.92C210.191 2.99467 210.583 3.06 211.012 3.116C211.441 3.15333 211.843 3.172 212.216 3.172L209.08 3.452V2.724Z" fill="#FAEDCD"/>
</svg>
