<svg width="124" height="20" viewBox="0 0 124 20" fill="none" xmlns="http://www.w3.org/2000/svg">
<path d="M6.80025 19.152C4.83758 19.152 3.28025 18.8853 2.12825 18.352C0.997583 17.84 0.43225 17.1467 0.43225 16.272C0.43225 14.736 1.64825 13.264 4.08025 11.856C6.34158 10.5547 8.49625 9.904 10.5443 9.904C11.3976 9.904 11.8243 10.128 11.8243 10.576C11.8243 11.792 10.4696 13.008 7.76025 14.224C7.41892 14.3733 7.12025 14.5013 6.86425 14.608C6.60825 14.6933 6.40558 14.736 6.25625 14.736C6.06425 14.736 5.96825 14.704 5.96825 14.64C5.96825 14.5333 6.06425 14.416 6.25625 14.288C6.46958 14.16 6.65092 14.064 6.80025 14C8.29358 13.3387 9.36025 12.56 10.0003 11.664C10.1496 11.472 10.2243 11.3013 10.2243 11.152C10.2243 11.024 10.1389 10.96 9.96825 10.96C8.30425 10.96 6.51225 11.4613 4.59225 12.464C2.50158 13.552 1.45625 14.7147 1.45625 15.952C1.45625 17.104 3.09892 17.68 6.38425 17.68C8.90158 17.68 11.7069 17.328 14.8003 16.624C15.1203 16.56 15.5683 16.4427 16.1443 16.272C16.7203 16.1013 17.3389 15.8987 18.0003 15.664C18.6829 15.408 19.3229 15.12 19.9203 14.8C20.5389 14.48 21.0403 14.1387 21.4243 13.776C21.8083 13.392 22.0003 12.9973 22.0003 12.592C22.0003 12.08 21.6803 11.6107 21.0403 11.184C20.4003 10.7573 19.5789 10.3733 18.5763 10.032C17.5949 9.69067 16.5496 9.38133 15.4403 9.104C14.3309 8.80533 13.3069 8.54933 12.3683 8.336C11.8776 8.208 11.3016 8.016 10.6403 7.76C9.97892 7.48267 9.40292 7.152 8.91225 6.768C8.42158 6.36267 8.17625 5.91467 8.17625 5.424C8.17625 4.67733 8.61358 3.96267 9.48825 3.28C10.3843 2.576 11.6429 1.95733 13.2643 1.424C14.6296 0.997332 15.9416 0.687998 17.2003 0.495998C18.4803 0.282665 19.6643 0.175999 20.7523 0.175999C22.1389 0.175999 23.1309 0.346666 23.7283 0.688C24.3469 1.008 24.6563 1.44533 24.6563 2C24.6563 2.27733 24.5496 2.64 24.3363 3.088C24.1229 3.536 23.8563 3.94133 23.5363 4.304C23.2163 4.64533 22.8963 4.816 22.5763 4.816C22.3203 4.816 22.1923 4.74133 22.1923 4.592C22.1923 4.48533 22.3096 4.336 22.5443 4.144C22.7789 3.952 23.0136 3.728 23.2483 3.472C23.4829 3.216 23.6003 2.94933 23.6003 2.672C23.6003 2.24533 23.3549 1.95733 22.8643 1.808C22.3949 1.65867 21.6909 1.584 20.7523 1.584C20.2829 1.584 19.7283 1.616 19.0883 1.68C18.4696 1.72267 17.8189 1.808 17.1363 1.936C16.5176 2.04267 15.7709 2.192 14.8963 2.384C14.0429 2.576 13.2429 2.832 12.4963 3.152C10.8323 3.856 10.0003 4.50667 10.0003 5.104C10.0003 5.808 11.1096 6.416 13.3283 6.928C15.5043 7.41867 17.1683 7.80267 18.3203 8.08C19.4936 8.35733 20.1656 8.51733 20.3363 8.56C21.5949 8.96533 22.4589 9.456 22.9283 10.032C23.4189 10.5867 23.6643 11.184 23.6643 11.824C23.6643 12.2507 23.5149 12.72 23.2163 13.232C22.9389 13.7227 22.5016 14.1813 21.9043 14.608C21.0296 15.2693 20.0696 15.888 19.0243 16.464C17.9789 17.0187 16.6776 17.5093 15.1203 17.936C13.6483 18.3413 12.2189 18.64 10.8323 18.832C9.46692 19.0453 8.12292 19.152 6.80025 19.152ZM29.5228 9.488C29.2028 9.488 28.9254 9.38133 28.6908 9.168C28.4774 8.93333 28.3708 8.656 28.3708 8.336C28.3708 8.016 28.4774 7.73867 28.6908 7.504C28.9254 7.26933 29.2028 7.152 29.5228 7.152C29.8428 7.152 30.1201 7.26933 30.3548 7.504C30.5894 7.73867 30.7068 8.016 30.7068 8.336C30.7068 8.656 30.5894 8.93333 30.3548 9.168C30.1201 9.38133 29.8428 9.488 29.5228 9.488ZM27.1868 18.544C26.4401 18.544 25.8108 18.352 25.2988 17.968C24.8081 17.5627 24.6161 16.9013 24.7228 15.984C24.7654 15.6853 24.8721 15.2693 25.0428 14.736C25.2134 14.1813 25.4268 13.6267 25.6828 13.072C25.9601 12.496 26.2588 12.0053 26.5788 11.6C26.8988 11.1947 27.2188 10.992 27.5388 10.992C27.7948 10.992 28.0401 11.0773 28.2748 11.248C28.5094 11.3973 28.6268 11.6107 28.6268 11.888C28.6268 12.0373 28.5201 12.2507 28.3068 12.528C28.0934 12.784 27.8374 13.1147 27.5388 13.52C27.2614 13.904 27.0161 14.3413 26.8028 14.832C26.5894 15.3013 26.4828 15.8133 26.4828 16.368C26.4828 16.88 26.5894 17.232 26.8028 17.424C27.0374 17.5947 27.3148 17.68 27.6348 17.68C28.0401 17.68 28.4774 17.5733 28.9468 17.36C29.4161 17.1253 29.8854 16.8373 30.3548 16.496C30.6321 16.304 31.0374 15.952 31.5708 15.44C32.1254 14.928 32.7654 14.2773 33.4908 13.488C33.5334 13.4453 33.5761 13.424 33.6188 13.424C33.7894 13.424 33.8748 13.5413 33.8748 13.776C33.8748 13.84 33.7468 14.0213 33.4908 14.32C33.2348 14.5973 32.9254 14.9173 32.5628 15.28C32.2214 15.6427 31.8908 15.984 31.5708 16.304C31.2508 16.6027 31.0161 16.8053 30.8668 16.912C30.3334 17.3173 29.7574 17.6907 29.1388 18.032C28.5414 18.3733 27.8908 18.544 27.1868 18.544ZM39.003 18.224C37.339 18.224 36.507 17.392 36.507 15.728C36.507 15.216 36.6243 14.6187 36.859 13.936C37.115 13.232 37.3817 12.6347 37.659 12.144C36.4643 13.0613 35.5043 13.936 34.779 14.768C34.0537 15.5787 33.531 16.176 33.211 16.56C33.1257 16.6453 33.019 16.8267 32.891 17.104C32.763 17.36 32.6137 17.6053 32.443 17.84C32.2723 18.0533 32.0803 18.16 31.867 18.16C31.6537 18.16 31.5043 18.0747 31.419 17.904C31.3337 17.7333 31.291 17.5627 31.291 17.392C31.291 17.2853 31.323 17.168 31.387 17.04C31.6643 16.5493 31.9843 15.8027 32.347 14.8C32.731 13.776 33.0403 12.7413 33.275 11.696C33.3177 11.5253 33.3497 11.3867 33.371 11.28C33.4137 11.1733 33.467 11.056 33.531 10.928C33.6377 10.6933 33.8617 10.5013 34.203 10.352C34.5657 10.2027 34.8537 10.128 35.067 10.128C35.1737 10.128 35.2803 10.16 35.387 10.224C35.515 10.2667 35.579 10.3627 35.579 10.512C35.579 10.6187 35.515 10.8533 35.387 11.216C35.259 11.5787 35.099 11.984 34.907 12.432C34.7363 12.88 34.5657 13.3067 34.395 13.712C34.2457 14.096 34.139 14.3627 34.075 14.512C34.2457 14.3627 34.5123 14.1173 34.875 13.776C35.2377 13.4133 35.643 13.0293 36.091 12.624C36.5603 12.1973 37.0297 11.792 37.499 11.408C37.9683 11.024 38.3843 10.704 38.747 10.448C39.1097 10.192 39.3763 10.064 39.547 10.064C39.8457 10.064 40.1017 10.1387 40.315 10.288C40.5497 10.416 40.667 10.6507 40.667 10.992C40.667 11.1413 40.5497 11.3867 40.315 11.728C40.0803 12.0693 39.803 12.4747 39.483 12.944C39.163 13.4133 38.8857 13.9147 38.651 14.448C38.4163 14.9813 38.299 15.5147 38.299 16.048C38.299 16.432 38.395 16.7627 38.587 17.04C38.8003 17.296 39.0883 17.424 39.451 17.424C40.027 17.424 40.5817 17.296 41.115 17.04C41.6483 16.7627 42.139 16.432 42.587 16.048C43.035 15.664 43.4297 15.2907 43.771 14.928C44.1123 14.544 44.379 14.2453 44.571 14.032C44.5923 14.0107 44.6137 14 44.635 14C44.6777 14 44.731 14.032 44.795 14.096C44.859 14.1387 44.891 14.2133 44.891 14.32C44.891 14.4267 44.8483 14.5227 44.763 14.608C44.2723 15.184 43.7283 15.7493 43.131 16.304C42.555 16.8587 41.9257 17.3173 41.243 17.68C40.5603 18.0427 39.8137 18.224 39.003 18.224ZM47.3968 18.16C46.4794 18.16 45.7221 17.9573 45.1248 17.552C44.5488 17.1253 44.2608 16.4213 44.2608 15.44C44.2608 14.8 44.4741 14.16 44.9008 13.52C45.3488 12.8587 45.9034 12.2613 46.5648 11.728C47.2474 11.1733 47.9514 10.736 48.6768 10.416C49.4234 10.0747 50.0954 9.904 50.6927 9.904C51.0341 9.904 51.3648 9.968 51.6848 10.096C52.0048 10.2027 52.1648 10.4693 52.1648 10.896C52.1648 11.088 52.0794 11.3333 51.9088 11.632C51.7594 11.9093 51.5674 12.1653 51.3328 12.4C51.0981 12.6347 50.8634 12.752 50.6288 12.752C50.3941 12.752 50.2768 12.6133 50.2768 12.336C50.2768 12.1653 50.3194 12.0053 50.4048 11.856C50.4901 11.7067 50.5328 11.5573 50.5328 11.408C50.5328 11.1307 50.4368 10.9707 50.2448 10.928C50.0528 10.864 49.8714 10.832 49.7008 10.832C49.1034 10.832 48.5274 11.0773 47.9728 11.568C47.4181 12.0373 46.9594 12.6027 46.5968 13.264C46.2554 13.9253 46.0848 14.5547 46.0848 15.152C46.0848 16.5387 46.6714 17.232 47.8448 17.232C48.8048 17.232 49.6688 17.0507 50.4368 16.688C51.2048 16.3253 51.8661 15.9093 52.4208 15.44C52.9968 14.9493 53.4448 14.5227 53.7648 14.16C54.1061 13.7973 54.3088 13.616 54.3728 13.616C54.5648 13.616 54.6608 13.68 54.6608 13.808C54.6608 13.8933 54.6288 13.9893 54.5648 14.096C54.5434 14.1387 54.4688 14.2347 54.3408 14.384C54.2341 14.512 54.1274 14.6293 54.0208 14.736C52.9754 15.7173 51.9088 16.5387 50.8208 17.2C49.7541 17.84 48.6128 18.16 47.3968 18.16ZM56.8373 18.224C55.8986 18.224 55.0773 18 54.3733 17.552C53.6693 17.104 53.3173 16.3573 53.3173 15.312C53.3173 14.672 53.4879 14.0107 53.8293 13.328C54.1919 12.624 54.6613 11.9733 55.2373 11.376C55.8133 10.7787 56.4319 10.2987 57.0933 9.936C57.7759 9.552 58.4479 9.36 59.1093 9.36C59.4506 9.36 59.7386 9.456 59.9733 9.648C60.2079 9.81867 60.3253 10.0853 60.3253 10.448C60.3253 10.8747 60.1333 11.312 59.7493 11.76C59.3866 12.208 58.9279 12.6347 58.3733 13.04C57.8399 13.424 57.2959 13.7653 56.7413 14.064C56.1866 14.3413 55.7279 14.544 55.3653 14.672C55.3013 14.928 55.2693 15.1947 55.2693 15.472C55.2693 15.9627 55.3973 16.4 55.6533 16.784C55.9306 17.168 56.3999 17.36 57.0613 17.36C57.7226 17.36 58.3199 17.232 58.8533 16.976C59.4079 16.6987 59.9093 16.368 60.3573 15.984C60.8053 15.5787 61.2106 15.1947 61.5733 14.832C61.8719 14.5333 62.1173 14.288 62.3093 14.096C62.5013 13.8827 62.6719 13.7013 62.8213 13.552C62.8853 13.488 62.9813 13.456 63.1093 13.456C63.2159 13.456 63.3013 13.4987 63.3653 13.584C63.4293 13.648 63.4079 13.7333 63.3013 13.84C63.2159 13.9467 63.0666 14.1067 62.8533 14.32C62.6613 14.512 62.4693 14.7147 62.2773 14.928C62.1066 15.12 61.9786 15.2587 61.8933 15.344C60.9546 16.3467 60.0586 17.0827 59.2053 17.552C58.3519 18 57.5626 18.224 56.8373 18.224ZM55.4613 14.032C55.6746 13.9893 55.9733 13.8613 56.3573 13.648C56.7626 13.4133 57.1573 13.1467 57.5413 12.848C57.7119 12.6987 57.9466 12.4747 58.2453 12.176C58.5439 11.8773 58.7466 11.6213 58.8533 11.408C59.0026 11.1307 59.0773 10.9067 59.0773 10.736C59.0773 10.48 58.9386 10.352 58.6613 10.352C58.5119 10.352 58.3519 10.384 58.1813 10.448C57.9679 10.5333 57.7119 10.7467 57.4133 11.088C57.1146 11.4293 56.8799 11.696 56.7093 11.888C56.4533 12.208 56.2079 12.56 55.9733 12.944C55.7599 13.3067 55.5893 13.6693 55.4613 14.032ZM66.2233 18.32C66.0739 18.32 65.8926 18.1707 65.6792 17.872C65.4659 17.552 65.3592 17.296 65.3592 17.104C65.3592 16.8693 65.9886 16.5813 67.2473 16.24C67.7166 16.112 68.2073 15.9627 68.7193 15.792C69.2526 15.6 69.8179 15.3653 70.4153 15.088C71.3326 14.6613 72.2713 14.1173 73.2313 13.456C74.1913 12.7947 75.1619 12.1227 76.1433 11.44C77.4873 10.5013 78.3939 9.70133 78.8633 9.04C79.3539 8.35733 79.6206 7.89867 79.6633 7.664C79.6846 7.6 79.6953 7.504 79.6953 7.376C79.6953 7.056 79.5779 6.82133 79.3433 6.672C79.1086 6.50133 78.8099 6.416 78.4473 6.416C78.3619 6.416 78.2659 6.42667 78.1593 6.448C78.0526 6.448 77.9459 6.45867 77.8393 6.48C76.1539 6.864 74.1273 8.208 71.7593 10.512C71.6739 10.5973 71.5779 10.64 71.4713 10.64C71.3433 10.64 71.2793 10.5547 71.2793 10.384C71.4286 9.82933 71.7593 9.296 72.2713 8.784C72.8046 8.25067 73.4339 7.77067 74.1593 7.344C74.9059 6.91733 75.6739 6.58667 76.4633 6.352C77.2739 6.096 78.0206 5.968 78.7033 5.968C79.5779 5.968 80.2713 6.128 80.7833 6.448C81.2953 6.768 81.5513 7.23733 81.5513 7.856C81.5513 8.66667 81.1459 9.44533 80.3353 10.192C80.1219 10.4053 79.8126 10.6613 79.4073 10.96C79.0019 11.2587 78.5006 11.6 77.9033 11.984C77.8606 12.0053 77.4339 12.208 76.6233 12.592C75.8339 12.976 74.8099 13.4987 73.5513 14.16C71.3326 15.312 70.2019 15.9947 70.1593 16.208C70.3939 16.1653 70.7246 16.1227 71.1513 16.08C71.5779 16.0373 72.0046 16.0053 72.4313 15.984C72.8793 15.9627 73.2206 15.952 73.4553 15.952C74.3513 15.952 75.1619 16.0373 75.8873 16.208C76.6126 16.3787 77.1353 16.5707 77.4553 16.784C77.5833 16.8693 77.6473 16.9547 77.6473 17.04C77.6473 17.104 77.6046 17.136 77.5193 17.136C77.4339 17.136 77.3486 17.1147 77.2633 17.072C76.8153 16.9013 76.3779 16.7947 75.9513 16.752C75.5246 16.7093 75.0873 16.688 74.6393 16.688C73.4446 16.688 72.3353 16.7947 71.3113 17.008C70.3086 17.2213 69.2739 17.4773 68.2073 17.776L66.2233 18.32ZM85.132 18.672C84.044 18.672 83.052 18.4693 82.156 18.064C81.26 17.68 80.5347 17.168 79.98 16.528C79.4467 15.8667 79.18 15.152 79.18 14.384C79.18 12.8907 79.852 11.472 81.196 10.128C82.5613 8.76267 84.6413 7.64267 87.436 6.768C88.4813 6.448 89.4947 6.24533 90.476 6.16C91.4573 6.05333 92.3213 6 93.068 6C93.772 6 94.124 6.05333 94.124 6.16C94.124 6.16 93.8893 6.20267 93.42 6.288C92.9507 6.37333 92.3427 6.512 91.596 6.704C90.8707 6.87467 90.0813 7.088 89.228 7.344C88.396 7.57867 87.596 7.856 86.828 8.176C86.06 8.47467 85.4307 8.80533 84.94 9.168C84.236 9.68 83.596 10.2773 83.02 10.96C82.444 11.6213 81.9853 12.3147 81.644 13.04C81.3027 13.744 81.132 14.4267 81.132 15.088C81.132 15.8133 81.4627 16.4747 82.124 17.072C82.7853 17.6693 83.852 17.968 85.324 17.968C86.796 17.968 88.204 17.68 89.548 17.104C90.9133 16.5067 92.396 15.632 93.996 14.48C94.6147 14.032 95.1693 13.5307 95.66 12.976C96.1507 12.4213 96.5453 11.856 96.844 11.28C97.1427 10.704 97.292 10.192 97.292 9.744C97.292 9.06133 97.0787 8.56 96.652 8.24C96.2253 7.89867 95.4467 7.728 94.316 7.728C92.8867 7.728 91.5213 7.92 90.22 8.304C88.94 8.66667 87.6813 9.27467 86.444 10.128C86.4653 10.1067 86.4547 10.1173 86.412 10.16C86.3693 10.1813 86.3267 10.192 86.284 10.192C86.1773 10.192 86.124 10.1493 86.124 10.064C86.124 9.872 86.316 9.65867 86.7 9.424C87.1053 9.168 87.628 8.912 88.268 8.656C88.908 8.4 89.6013 8.16533 90.348 7.952C91.0947 7.73867 91.8307 7.568 92.556 7.44C93.2813 7.29067 93.9107 7.216 94.444 7.216C96.0013 7.216 97.2067 7.48267 98.06 8.016C98.9347 8.54933 99.372 9.28533 99.372 10.224C99.372 11.1413 99.0627 12.0267 98.444 12.88C97.8467 13.712 97.036 14.48 96.012 15.184C95.0093 15.888 93.8893 16.5067 92.652 17.04C91.4147 17.552 90.1453 17.9467 88.844 18.224C87.5427 18.5227 86.3053 18.672 85.132 18.672ZM100.216 18.736C100.024 18.736 99.928 18.672 99.928 18.544C99.928 18.4373 100.024 18.1493 100.216 17.68C100.429 17.2107 100.685 16.688 100.984 16.112C101.283 15.5147 101.56 14.9707 101.816 14.48C102.072 13.9893 102.243 13.6693 102.328 13.52C102.925 12.5173 103.437 11.5893 103.864 10.736C104.312 9.88267 104.707 9.09333 105.048 8.368C104.984 8.368 104.856 8.41067 104.664 8.496C104.493 8.58133 104.355 8.656 104.248 8.72C104.056 8.848 103.896 8.912 103.768 8.912C103.661 8.912 103.608 8.85867 103.608 8.752C103.608 8.70933 103.619 8.656 103.64 8.592C103.683 8.528 103.768 8.45333 103.896 8.368L107.16 5.872C107.181 5.85067 107.245 5.84 107.352 5.84C107.523 5.79733 107.768 5.808 108.088 5.872C108.429 5.936 108.717 6.032 108.952 6.16C109.208 6.26667 109.283 6.384 109.176 6.512C108.92 6.78933 108.557 7.216 108.088 7.792C107.64 8.34667 107.139 8.98667 106.584 9.712C106.029 10.4373 105.475 11.1733 104.92 11.92C104.387 12.6453 103.907 13.3173 103.48 13.936C103.075 14.5333 102.776 15.0027 102.584 15.344C102.456 15.5573 102.264 15.8773 102.008 16.304C101.752 16.7093 101.485 17.136 101.208 17.584C100.952 18.0107 100.749 18.3627 100.6 18.64C100.579 18.704 100.451 18.736 100.216 18.736ZM109.191 18.064C108.465 18.064 107.857 17.936 107.367 17.68C106.855 17.424 106.599 16.9973 106.599 16.4C106.599 15.952 106.769 15.4507 107.111 14.896C107.431 14.32 107.943 13.7547 108.647 13.2C108.881 13.0293 109.287 12.752 109.863 12.368C110.46 11.984 111.175 11.5573 112.007 11.088C111.793 10.7253 111.655 10.3413 111.591 9.936C111.527 9.50933 111.495 9.14667 111.495 8.848C111.495 8.37867 111.623 7.952 111.879 7.568C112.135 7.184 112.551 6.82133 113.127 6.48C113.66 6.16 114.247 5.936 114.887 5.808C115.548 5.65867 116.209 5.584 116.871 5.584C117.553 5.584 118.193 5.68 118.791 5.872C119.388 6.064 119.868 6.40533 120.231 6.896C120.849 6.59733 121.415 6.33067 121.927 6.096C122.46 5.84 122.876 5.65867 123.175 5.552C123.239 5.50933 123.303 5.488 123.367 5.488C123.431 5.488 123.495 5.488 123.559 5.488C123.708 5.488 123.783 5.52 123.783 5.584C123.783 5.69067 123.612 5.82933 123.271 6C123.207 6.02133 123.036 6.096 122.759 6.224C122.503 6.352 122.215 6.50133 121.895 6.672C121.575 6.82133 121.276 6.96 120.999 7.088C120.743 7.19467 120.583 7.25867 120.519 7.28C120.86 7.89867 121.031 8.368 121.031 8.688C121.031 8.88 120.967 8.976 120.839 8.976C120.668 8.976 120.263 8.56 119.623 7.728C119.473 7.74933 119.111 7.90933 118.535 8.208C117.959 8.48533 117.297 8.83733 116.551 9.264C115.655 9.776 115.004 10.1707 114.599 10.448C114.215 10.704 114.012 10.8747 113.991 10.96C114.076 11.024 114.204 11.2053 114.375 11.504C114.545 11.8027 114.705 12.1653 114.855 12.592C115.004 12.9973 115.079 13.4133 115.079 13.84C115.079 14.3947 114.897 14.928 114.535 15.44C114.193 15.952 113.756 16.4 113.223 16.784C112.049 17.6373 110.705 18.064 109.191 18.064ZM113.607 10.288C114.055 9.98933 114.737 9.584 115.655 9.072C116.572 8.56 117.713 7.92 119.079 7.152C118.865 6.78933 118.556 6.50133 118.151 6.288C117.767 6.07467 117.244 5.968 116.583 5.968C115.644 5.968 114.801 6.18133 114.055 6.608C113.628 6.84267 113.329 7.12 113.159 7.44C112.988 7.76 112.903 8.10133 112.903 8.464C112.903 8.89067 113.137 9.49867 113.607 10.288ZM109.703 17.584C110.172 17.584 110.631 17.4347 111.079 17.136C111.527 16.816 111.943 16.4533 112.327 16.048C112.689 15.664 112.935 15.2907 113.063 14.928C113.191 14.544 113.255 14.1493 113.255 13.744C113.255 13.5093 113.169 13.2213 112.999 12.88C112.849 12.5387 112.668 12.1867 112.455 11.824C112.241 11.8667 111.889 12.0693 111.399 12.432C110.929 12.7733 110.481 13.1893 110.055 13.68C109.564 14.256 109.18 14.768 108.903 15.216C108.647 15.664 108.519 16.0587 108.519 16.4C108.519 17.1893 108.913 17.584 109.703 17.584Z" fill="white"/>
</svg>
