<svg width="225" height="22" viewBox="0 0 225 22" fill="none" xmlns="http://www.w3.org/2000/svg">
<path d="M20.748 1.008L20.972 2.884L13.944 18.536C13.944 18.536 13.8693 18.6947 13.72 19.012C13.5893 19.3293 13.4493 19.712 13.3 20.16C13.1507 20.5893 13.048 21 12.992 21.392H12.712L12.32 19.628L20.748 1.008ZM3.528 18.956V21H0.42V20.72C0.438667 20.72 0.513333 20.72 0.644 20.72C0.793333 20.72 0.868 20.72 0.868 20.72C1.372 20.72 1.82 20.5707 2.212 20.272C2.604 19.9547 2.83733 19.516 2.912 18.956H3.528ZM4.34 19.404C4.34 19.4227 4.34 19.4413 4.34 19.46C4.34 19.4787 4.34 19.5067 4.34 19.544C4.34 19.8427 4.44267 20.1227 4.648 20.384C4.872 20.6267 5.13333 20.748 5.432 20.748H5.852V21H4.144V19.404H4.34ZM5.012 1.008H5.292L5.852 2.66L4.2 21H2.688L5.012 1.008ZM5.292 1.008L13.356 18.452L12.712 21.392L4.76 4.144L5.292 1.008ZM21 1.008L23.408 21H21.224L19.684 4.032L20.748 1.008H21ZM22.568 18.956H23.156C23.2493 19.516 23.492 19.9547 23.884 20.272C24.276 20.5707 24.7147 20.72 25.2 20.72C25.2 20.72 25.2747 20.72 25.424 20.72C25.5733 20.72 25.648 20.72 25.648 20.72V21H22.568V18.956ZM21.084 19.404H21.28V21H19.572V20.748H19.992C20.3093 20.748 20.5707 20.6267 20.776 20.384C20.9813 20.1227 21.084 19.8427 21.084 19.544C21.084 19.5067 21.084 19.4787 21.084 19.46C21.084 19.4413 21.084 19.4227 21.084 19.404ZM35.4666 3.808L43.1666 20.832H40.9546L34.9906 6.3L35.4666 3.808ZM30.0626 18.956C29.8573 19.516 29.8853 19.9547 30.1466 20.272C30.4079 20.5707 30.7066 20.72 31.0426 20.72H31.2666V21H25.9186V20.72C25.9186 20.72 25.9559 20.72 26.0306 20.72C26.1053 20.72 26.1426 20.72 26.1426 20.72C26.5346 20.72 26.9359 20.5893 27.3466 20.328C27.7573 20.048 28.1119 19.5907 28.4106 18.956H30.0626ZM35.4666 3.808L35.6626 5.74L29.2506 20.916H27.4866L34.1226 6.692C34.1226 6.692 34.1693 6.58 34.2626 6.356C34.3746 6.132 34.4959 5.86133 34.6266 5.544C34.7759 5.208 34.9066 4.88133 35.0186 4.564C35.1306 4.24667 35.1959 3.99467 35.2146 3.808H35.4666ZM38.7706 14.476V15.316H31.3506V14.476H38.7706ZM40.1986 18.956H42.3266C42.6066 19.5907 42.9519 20.048 43.3626 20.328C43.7733 20.5893 44.1653 20.72 44.5386 20.72C44.5386 20.72 44.5759 20.72 44.6506 20.72C44.7253 20.72 44.7626 20.72 44.7626 20.72V21H39.0226V20.72H39.2466C39.5639 20.72 39.8533 20.5707 40.1146 20.272C40.3759 19.9547 40.4039 19.516 40.1986 18.956ZM49.973 4.2V21H48.181V4.2H49.973ZM57.505 20.132L57.449 21H49.917V20.132H57.505ZM56.189 12.18V13.02H49.917V12.18H56.189ZM57.477 4.2V5.068H49.917V4.2H57.477ZM59.073 16.996L57.533 21H53.277L54.229 20.132C55.1623 20.132 55.909 20.0013 56.469 19.74C57.0477 19.46 57.5143 19.0867 57.869 18.62C58.2237 18.1347 58.5317 17.5933 58.793 16.996H59.073ZM56.189 12.964V14.56H55.881V14.196C55.881 13.8787 55.7877 13.608 55.601 13.384C55.4143 13.1413 55.125 13.02 54.733 13.02V12.964H56.189ZM56.189 10.64V12.236H54.733V12.18C55.125 12.18 55.4143 12.068 55.601 11.844C55.7877 11.6013 55.881 11.3213 55.881 11.004V10.64H56.189ZM57.477 4.984V6.916H57.169V6.496C57.169 6.104 57.0383 5.768 56.777 5.488C56.5343 5.208 56.1983 5.068 55.769 5.068V4.984H57.477ZM57.477 3.752V4.48L54.285 4.2C54.8637 4.2 55.4797 4.15333 56.133 4.06C56.7863 3.948 57.2343 3.84533 57.477 3.752ZM48.237 19.208L48.601 21H46.165V20.72C46.165 20.72 46.2303 20.72 46.361 20.72C46.4917 20.72 46.557 20.72 46.557 20.72C47.0237 20.72 47.4063 20.5707 47.705 20.272C48.0037 19.9733 48.1623 19.6187 48.181 19.208H48.237ZM48.237 5.964H48.181C48.1623 5.53467 48.0037 5.18 47.705 4.9C47.4063 4.62 47.0237 4.48 46.557 4.48C46.557 4.48 46.4917 4.48 46.361 4.48C46.2303 4.48 46.165 4.48 46.165 4.48V4.2H48.601L48.237 5.964ZM50.281 2.408C49.9823 2.408 49.721 2.30533 49.497 2.1C49.2917 1.876 49.189 1.61467 49.189 1.316C49.189 0.998666 49.2917 0.737333 49.497 0.532C49.721 0.326666 49.9823 0.223999 50.281 0.223999C50.5983 0.223999 50.8597 0.326666 51.065 0.532C51.2703 0.737333 51.373 0.998666 51.373 1.316C51.373 1.61467 51.2703 1.876 51.065 2.1C50.8597 2.30533 50.5983 2.408 50.281 2.408ZM55.573 2.408C55.2743 2.408 55.013 2.30533 54.789 2.1C54.5837 1.876 54.481 1.61467 54.481 1.316C54.481 0.998666 54.5837 0.737333 54.789 0.532C55.013 0.326666 55.2743 0.223999 55.573 0.223999C55.8717 0.223999 56.1237 0.326666 56.329 0.532C56.553 0.737333 56.665 0.998666 56.665 1.316C56.665 1.61467 56.553 1.876 56.329 2.1C56.1237 2.30533 55.8717 2.408 55.573 2.408ZM64.9847 4.2V21H63.1927V4.2H64.9847ZM72.5167 20.132L72.4607 21H64.9287V20.132H72.5167ZM74.0847 16.996L72.5447 21H68.2887L69.2407 20.132C70.1741 20.132 70.9207 20.0013 71.4807 19.74C72.0594 19.46 72.5261 19.0867 72.8807 18.62C73.2354 18.1347 73.5434 17.5933 73.8047 16.996H74.0847ZM63.2487 19.208L63.6127 21H61.1767V20.72C61.1767 20.72 61.2421 20.72 61.3727 20.72C61.5034 20.72 61.5687 20.72 61.5687 20.72C62.0354 20.72 62.4181 20.5707 62.7167 20.272C63.0154 19.9733 63.1741 19.6187 63.1927 19.208H63.2487ZM64.9007 5.992V4.2H66.9727V4.48C66.9727 4.48 66.9167 4.48 66.8047 4.48C66.6927 4.48 66.6367 4.48 66.6367 4.48C66.1887 4.48 65.7967 4.62933 65.4607 4.928C65.1434 5.208 64.9847 5.56267 64.9847 5.992H64.9007ZM63.2487 5.992H63.1927C63.1741 5.56267 63.0061 5.208 62.6887 4.928C62.3714 4.62933 61.9794 4.48 61.5127 4.48C61.5127 4.48 61.4567 4.48 61.3447 4.48C61.2327 4.48 61.1767 4.48 61.1767 4.48V4.2H63.2487V5.992ZM102.396 1.008L102.62 2.884L95.5924 18.536C95.5924 18.536 95.5178 18.6947 95.3684 19.012C95.2378 19.3293 95.0978 19.712 94.9484 20.16C94.7991 20.5893 94.6964 21 94.6404 21.392H94.3604L93.9684 19.628L102.396 1.008ZM85.1764 18.956V21H82.0684V20.72C82.0871 20.72 82.1618 20.72 82.2924 20.72C82.4418 20.72 82.5164 20.72 82.5164 20.72C83.0204 20.72 83.4684 20.5707 83.8604 20.272C84.2524 19.9547 84.4858 19.516 84.5604 18.956H85.1764ZM85.9884 19.404C85.9884 19.4227 85.9884 19.4413 85.9884 19.46C85.9884 19.4787 85.9884 19.5067 85.9884 19.544C85.9884 19.8427 86.0911 20.1227 86.2964 20.384C86.5204 20.6267 86.7818 20.748 87.0804 20.748H87.5004V21H85.7924V19.404H85.9884ZM86.6604 1.008H86.9404L87.5004 2.66L85.8484 21H84.3364L86.6604 1.008ZM86.9404 1.008L95.0044 18.452L94.3604 21.392L86.4084 4.144L86.9404 1.008ZM102.648 1.008L105.056 21H102.872L101.332 4.032L102.396 1.008H102.648ZM104.216 18.956H104.804C104.898 19.516 105.14 19.9547 105.532 20.272C105.924 20.5707 106.363 20.72 106.848 20.72C106.848 20.72 106.923 20.72 107.072 20.72C107.222 20.72 107.296 20.72 107.296 20.72V21H104.216V18.956ZM102.732 19.404H102.928V21H101.22V20.748H101.64C101.958 20.748 102.219 20.6267 102.424 20.384C102.63 20.1227 102.732 19.8427 102.732 19.544C102.732 19.5067 102.732 19.4787 102.732 19.46C102.732 19.4413 102.732 19.4227 102.732 19.404ZM118.27 3.808C119.576 3.808 120.799 4.02267 121.938 4.452C123.095 4.86267 124.103 5.46 124.962 6.244C125.839 7.028 126.52 7.96133 127.006 9.044C127.491 10.108 127.734 11.2933 127.734 12.6C127.734 13.9067 127.491 15.1013 127.006 16.184C126.52 17.248 125.839 18.172 124.962 18.956C124.103 19.74 123.095 20.3467 121.938 20.776C120.799 21.1867 119.576 21.392 118.27 21.392C116.963 21.392 115.74 21.1867 114.602 20.776C113.463 20.3467 112.455 19.74 111.578 18.956C110.719 18.172 110.047 17.248 109.562 16.184C109.076 15.1013 108.834 13.9067 108.834 12.6C108.834 11.2933 109.076 10.108 109.562 9.044C110.047 7.96133 110.719 7.028 111.578 6.244C112.455 5.46 113.463 4.86267 114.602 4.452C115.74 4.02267 116.963 3.808 118.27 3.808ZM118.27 20.552C119.651 20.552 120.902 20.216 122.022 19.544C123.142 18.872 124.028 17.9387 124.682 16.744C125.335 15.5493 125.662 14.168 125.662 12.6C125.662 11.0133 125.335 9.632 124.682 8.456C124.028 7.26133 123.142 6.328 122.022 5.656C120.902 4.984 119.651 4.648 118.27 4.648C116.907 4.648 115.666 4.984 114.546 5.656C113.426 6.328 112.539 7.26133 111.886 8.456C111.232 9.632 110.906 11.0133 110.906 12.6C110.906 14.168 111.232 15.5493 111.886 16.744C112.539 17.9387 113.426 18.872 114.546 19.544C115.666 20.216 116.907 20.552 118.27 20.552ZM133.663 4.2H137.275C138.152 4.2 138.936 4.30267 139.627 4.508C140.336 4.71333 140.934 5.012 141.419 5.404C141.923 5.796 142.306 6.272 142.567 6.832C142.828 7.392 142.959 8.02667 142.959 8.736C142.959 9.52 142.772 10.248 142.399 10.92C142.026 11.592 141.503 12.1427 140.831 12.572C140.178 13.0013 139.431 13.2627 138.591 13.356C138.908 13.4867 139.272 13.776 139.683 14.224C140.112 14.672 140.476 15.1107 140.775 15.54C140.775 15.54 140.896 15.708 141.139 16.044C141.382 16.3613 141.69 16.7627 142.063 17.248C142.455 17.7147 142.838 18.1627 143.211 18.592C143.603 19.0213 143.958 19.3947 144.275 19.712C144.611 20.0293 144.966 20.2813 145.339 20.468C145.731 20.636 146.179 20.72 146.683 20.72V21H145.815C144.788 21 143.939 20.8693 143.267 20.608C142.614 20.3467 142.082 20.0293 141.671 19.656C141.26 19.264 140.906 18.8907 140.607 18.536C140.532 18.4427 140.355 18.2093 140.075 17.836C139.814 17.444 139.524 17.024 139.207 16.576C138.89 16.128 138.6 15.7267 138.339 15.372C138.078 14.9987 137.919 14.7747 137.863 14.7C137.49 14.2147 137.06 13.7853 136.575 13.412C136.09 13.02 135.576 12.824 135.035 12.824V12.544C135.035 12.544 135.184 12.5533 135.483 12.572C135.782 12.572 136.164 12.5627 136.631 12.544C137.154 12.5253 137.676 12.488 138.199 12.432C138.722 12.3573 139.207 12.152 139.655 11.816C140.122 11.48 140.486 10.92 140.747 10.136C140.822 9.93067 140.878 9.688 140.915 9.408C140.952 9.128 140.962 8.83867 140.943 8.54C140.924 8.01733 140.822 7.55067 140.635 7.14C140.467 6.72933 140.215 6.37467 139.879 6.076C139.562 5.77733 139.179 5.544 138.731 5.376C138.283 5.208 137.779 5.11467 137.219 5.096C136.342 5.05867 135.576 5.04933 134.923 5.068C134.27 5.08667 133.943 5.08667 133.943 5.068C133.943 5.04933 133.915 4.97467 133.859 4.844C133.822 4.69467 133.775 4.55467 133.719 4.424C133.682 4.27467 133.663 4.2 133.663 4.2ZM133.999 4.2V21H132.207V4.2H133.999ZM132.291 19.208L132.627 21H130.247V20.72C130.247 20.72 130.312 20.72 130.443 20.72C130.574 20.72 130.639 20.72 130.639 20.72C131.087 20.72 131.46 20.5707 131.759 20.272C132.058 19.9733 132.216 19.6187 132.235 19.208H132.291ZM132.291 5.964H132.235C132.216 5.53467 132.058 5.18 131.759 4.9C131.46 4.62 131.087 4.48 130.639 4.48C130.639 4.48 130.574 4.48 130.443 4.48C130.312 4.48 130.247 4.48 130.247 4.48V4.2H132.627L132.291 5.964ZM133.915 19.208H133.999C134.018 19.6187 134.176 19.9733 134.475 20.272C134.774 20.5707 135.147 20.72 135.595 20.72C135.595 20.72 135.651 20.72 135.763 20.72C135.894 20.72 135.959 20.72 135.959 20.72L135.987 21H133.579L133.915 19.208ZM151.61 4.2V21H149.818V4.2H151.61ZM159.142 20.132L159.086 21H151.554V20.132H159.142ZM160.71 16.996L159.17 21H154.914L155.866 20.132C156.799 20.132 157.546 20.0013 158.106 19.74C158.684 19.46 159.151 19.0867 159.506 18.62C159.86 18.1347 160.168 17.5933 160.43 16.996H160.71ZM149.874 19.208L150.238 21H147.802V20.72C147.802 20.72 147.867 20.72 147.998 20.72C148.128 20.72 148.194 20.72 148.194 20.72C148.66 20.72 149.043 20.5707 149.342 20.272C149.64 19.9733 149.799 19.6187 149.818 19.208H149.874ZM151.526 5.992V4.2H153.598V4.48C153.598 4.48 153.542 4.48 153.43 4.48C153.318 4.48 153.262 4.48 153.262 4.48C152.814 4.48 152.422 4.62933 152.086 4.928C151.768 5.208 151.61 5.56267 151.61 5.992H151.526ZM149.874 5.992H149.818C149.799 5.56267 149.631 5.208 149.314 4.928C148.996 4.62933 148.604 4.48 148.138 4.48C148.138 4.48 148.082 4.48 147.97 4.48C147.858 4.48 147.802 4.48 147.802 4.48V4.2H149.874V5.992ZM165.938 4.2V21H164.146V4.2H165.938ZM173.47 20.132L173.414 21H165.882V20.132H173.47ZM172.154 12.18V13.02H165.882V12.18H172.154ZM173.442 4.2V5.068H165.882V4.2H173.442ZM175.038 16.996L173.498 21H169.242L170.194 20.132C171.127 20.132 171.874 20.0013 172.434 19.74C173.013 19.46 173.479 19.0867 173.834 18.62C174.189 18.1347 174.497 17.5933 174.758 16.996H175.038ZM172.154 12.964V14.56H171.846V14.196C171.846 13.8787 171.753 13.608 171.566 13.384C171.379 13.1413 171.09 13.02 170.698 13.02V12.964H172.154ZM172.154 10.64V12.236H170.698V12.18C171.09 12.18 171.379 12.068 171.566 11.844C171.753 11.6013 171.846 11.3213 171.846 11.004V10.64H172.154ZM173.442 4.984V6.916H173.134V6.496C173.134 6.104 173.003 5.768 172.742 5.488C172.499 5.208 172.163 5.068 171.734 5.068V4.984H173.442ZM173.442 3.752V4.48L170.25 4.2C170.829 4.2 171.445 4.15333 172.098 4.06C172.751 3.948 173.199 3.84533 173.442 3.752ZM164.202 19.208L164.566 21H162.13V20.72C162.13 20.72 162.195 20.72 162.326 20.72C162.457 20.72 162.522 20.72 162.522 20.72C162.989 20.72 163.371 20.5707 163.67 20.272C163.969 19.9733 164.127 19.6187 164.146 19.208H164.202ZM164.202 5.964H164.146C164.127 5.53467 163.969 5.18 163.67 4.9C163.371 4.62 162.989 4.48 162.522 4.48C162.522 4.48 162.457 4.48 162.326 4.48C162.195 4.48 162.13 4.48 162.13 4.48V4.2H164.566L164.202 5.964ZM185.031 21.392L177.331 4.368H179.543L185.507 18.9L185.031 21.392ZM185.031 21.392L184.835 19.46L191.247 4.284H193.011L186.375 18.508C186.375 18.508 186.319 18.62 186.207 18.844C186.114 19.068 185.992 19.348 185.843 19.684C185.712 20.0013 185.591 20.3187 185.479 20.636C185.367 20.9533 185.302 21.2053 185.283 21.392H185.031ZM190.435 6.244C190.64 5.684 190.612 5.25467 190.351 4.956C190.09 4.63867 189.791 4.48 189.455 4.48H189.259V4.2H194.579V4.48C194.579 4.48 194.542 4.48 194.467 4.48C194.392 4.48 194.355 4.48 194.355 4.48C193.963 4.48 193.562 4.62 193.151 4.9C192.74 5.16133 192.386 5.60933 192.087 6.244H190.435ZM180.299 6.244H178.171C177.891 5.60933 177.546 5.16133 177.135 4.9C176.724 4.62 176.332 4.48 175.959 4.48C175.959 4.48 175.922 4.48 175.847 4.48C175.772 4.48 175.735 4.48 175.735 4.48V4.2H181.475V4.48H181.251C180.934 4.48 180.644 4.63867 180.383 4.956C180.14 5.25467 180.112 5.684 180.299 6.244ZM201.471 3.808L209.171 20.832H206.959L200.995 6.3L201.471 3.808ZM196.067 18.956C195.861 19.516 195.889 19.9547 196.151 20.272C196.412 20.5707 196.711 20.72 197.047 20.72H197.271V21H191.922V20.72C191.922 20.72 191.96 20.72 192.034 20.72C192.109 20.72 192.147 20.72 192.147 20.72C192.539 20.72 192.94 20.5893 193.351 20.328C193.761 20.048 194.116 19.5907 194.415 18.956H196.067ZM201.471 3.808L201.667 5.74L195.255 20.916H193.491L200.127 6.692C200.127 6.692 200.173 6.58 200.267 6.356C200.379 6.132 200.5 5.86133 200.631 5.544C200.78 5.208 200.911 4.88133 201.023 4.564C201.135 4.24667 201.2 3.99467 201.219 3.808H201.471ZM204.775 14.476V15.316H197.355V14.476H204.775ZM206.202 18.956H208.331C208.611 19.5907 208.956 20.048 209.367 20.328C209.777 20.5893 210.169 20.72 210.543 20.72C210.543 20.72 210.58 20.72 210.655 20.72C210.729 20.72 210.767 20.72 210.767 20.72V21H205.027V20.72H205.251C205.568 20.72 205.857 20.5707 206.119 20.272C206.38 19.9547 206.408 19.516 206.202 18.956ZM217.676 4.284V21H215.856V4.284H217.676ZM224.452 4.172V5.012H209.08V4.172H224.452ZM224.452 4.956V6.888H224.144V6.44C224.144 6.048 224.013 5.72133 223.752 5.46C223.509 5.18 223.173 5.03067 222.744 5.012V4.956H224.452ZM224.452 3.724V4.452L221.316 4.172C221.689 4.172 222.081 4.15333 222.492 4.116C222.921 4.06 223.313 3.99467 223.668 3.92C224.023 3.84533 224.284 3.78 224.452 3.724ZM215.912 19.208V21H213.868V20.72C213.887 20.72 213.943 20.72 214.036 20.72C214.148 20.72 214.204 20.72 214.204 20.72C214.652 20.72 215.035 20.5707 215.352 20.272C215.669 19.9733 215.837 19.6187 215.856 19.208H215.912ZM217.592 19.208H217.676C217.695 19.6187 217.863 19.9733 218.18 20.272C218.497 20.5707 218.88 20.72 219.328 20.72C219.328 20.72 219.375 20.72 219.468 20.72C219.58 20.72 219.636 20.72 219.636 20.72V21H217.592V19.208ZM210.788 4.956V5.012C210.359 5.03067 210.013 5.18 209.752 5.46C209.509 5.72133 209.388 6.048 209.388 6.44V6.888H209.08V4.956H210.788ZM209.08 3.724C209.248 3.78 209.5 3.84533 209.836 3.92C210.191 3.99467 210.583 4.06 211.012 4.116C211.441 4.15333 211.843 4.172 212.216 4.172L209.08 4.452V3.724Z" fill="#FAEDCD"/>
</svg>
